<svg xmlns="http://www.w3.org/2000/svg" viewBox="0 0 920 680" role="img" aria-labelledby="title desc">
  <title id="title">Stylized portfolio dashboard preview</title>
  <desc id="desc">A layered portfolio interface with project cards, charts, and profile panels.</desc>
  <defs>
    <linearGradient id="bg" x1="0" x2="1" y1="0" y2="1">
      <stop offset="0" stop-color="#f7f1e7"/>
      <stop offset="1" stop-color="#d8eee9"/>
    </linearGradient>
    <linearGradient id="panel" x1="0" x2="1">
      <stop offset="0" stop-color="#ffffff"/>
      <stop offset="1" stop-color="#f3fbf8"/>
    </linearGradient>
    <filter id="shadow" x="-20%" y="-20%" width="140%" height="140%">
      <feDropShadow dx="0" dy="28" stdDeviation="28" flood-color="#1a2a24" flood-opacity=".18"/>
    </filter>
  </defs>
  <rect width="920" height="680" fill="url(#bg)"/>
  <circle cx="790" cy="88" r="78" fill="#dc6b4a" opacity=".26"/>
  <circle cx="112" cy="592" r="112" fill="#0f766e" opacity=".18"/>
  <g filter="url(#shadow)">
    <rect x="92" y="70" width="736" height="540" rx="24" fill="url(#panel)" stroke="#16211d" stroke-opacity=".1"/>
    <rect x="92" y="70" width="736" height="72" rx="24" fill="#17201c"/>
    <circle cx="132" cy="106" r="10" fill="#ff9a77"/>
    <circle cx="164" cy="106" r="10" fill="#f0c65a"/>
    <circle cx="196" cy="106" r="10" fill="#45c5b8"/>
    <rect x="614" y="94" width="158" height="24" rx="12" fill="#ffffff" opacity=".18"/>
    <rect x="132" y="180" width="244" height="158" rx="18" fill="#0f766e"/>
    <rect x="160" y="210" width="134" height="16" rx="8" fill="#ffffff" opacity=".78"/>
    <rect x="160" y="244" width="176" height="12" rx="6" fill="#ffffff" opacity=".42"/>
    <rect x="160" y="270" width="112" height="12" rx="6" fill="#ffffff" opacity=".42"/>
    <path d="M166 314 C208 278 246 306 288 268 C312 246 332 250 350 230" fill="none" stroke="#ffffff" stroke-width="10" stroke-linecap="round" opacity=".7"/>
    <rect x="410" y="180" width="378" height="158" rx="18" fill="#ffffff" stroke="#16211d" stroke-opacity=".1"/>
    <rect x="442" y="214" width="156" height="18" rx="9" fill="#17201c" opacity=".9"/>
    <rect x="442" y="252" width="292" height="12" rx="6" fill="#17201c" opacity=".14"/>
    <rect x="442" y="280" width="222" height="12" rx="6" fill="#17201c" opacity=".14"/>
    <rect x="442" y="306" width="88" height="18" rx="9" fill="#dc6b4a"/>
    <g transform="translate(132 376)">
      <rect width="196" height="154" rx="18" fill="#ffffff" stroke="#16211d" stroke-opacity=".1"/>
      <rect x="28" y="30" width="72" height="12" rx="6" fill="#17201c" opacity=".85"/>
      <rect x="28" y="60" width="136" height="10" rx="5" fill="#17201c" opacity=".14"/>
      <rect x="28" y="84" width="108" height="10" rx="5" fill="#17201c" opacity=".14"/>
      <circle cx="146" cy="116" r="22" fill="#f0c65a"/>
    </g>
    <g transform="translate(362 376)">
      <rect width="196" height="154" rx="18" fill="#ffffff" stroke="#16211d" stroke-opacity=".1"/>
      <rect x="28" y="30" width="92" height="12" rx="6" fill="#17201c" opacity=".85"/>
      <rect x="30" y="112" width="22" height="18" rx="5" fill="#45c5b8"/>
      <rect x="64" y="84" width="22" height="46" rx="5" fill="#45c5b8"/>
      <rect x="98" y="62" width="22" height="68" rx="5" fill="#45c5b8"/>
      <rect x="132" y="44" width="22" height="86" rx="5" fill="#45c5b8"/>
    </g>
    <g transform="translate(592 376)">
      <rect width="196" height="154" rx="18" fill="#ffffff" stroke="#16211d" stroke-opacity=".1"/>
      <rect x="28" y="30" width="102" height="12" rx="6" fill="#17201c" opacity=".85"/>
      <circle cx="60" cy="92" r="32" fill="#dc6b4a" opacity=".86"/>
      <circle cx="116" cy="92" r="32" fill="#0f766e" opacity=".86"/>
      <circle cx="88" cy="92" r="32" fill="#f0c65a" opacity=".82"/>
    </g>
  </g>
</svg>
